<svg xmlns="http://www.w3.org/2000/svg" xmlns:xlink="http://www.w3.org/1999/xlink" viewBox="0 0 677 160.1"><defs><style>.cls-1{fill:none;}.cls-2{clip-path:url(#clip-path);}.cls-3{fill:url(#Gradiente_sem_nome_70);}.cls-4{fill:#333;}</style><clipPath id="clip-path"><path class="cls-1" d="M297.89,6.9V74.63c-4.11-23.36-23.44-36.47-46.64-36.47-18,0-33,7.86-41.45,20.57l7.89-19.1H188.07L165.64,93.81,144.36,39.63H112.45l8.89,21.61c-7.92-14.92-23.82-23.08-42.12-23.08-25.11,0-44.41,15.28-48.12,37.69V6.9H0V128.35H31.1V91.8c3.7,22.35,23.07,38,51.39,38,16.86,0,29.3-4.91,37.81-14.4l-16.37-17c-6.05,5.24-11.78,7.7-20.46,7.7-11.45,0-19.15-5.24-21.76-14.24H126.2c.16-2.46.49-5.41.49-7.7a52.17,52.17,0,0,0-2.12-15.05L149,128.35H181l22.4-54.21a48.47,48.47,0,0,0-1,9.69c0,26.51,20.46,46,52.05,46,16.86,0,29.3-4.91,37.81-14.4L276,98.39c-6,5.24-11.78,7.7-20.46,7.7-11.46,0-19.15-5.24-21.77-14.24h64.16v36.5H329V6.9ZM61.21,75.48c1.8-9.33,8.52-15.22,18.17-15.22s16.53,5.89,18.17,15.22Zm172,0c1.8-9.33,8.51-15.22,18.17-15.22s16.53,5.89,18.17,15.22Z"/></clipPath><linearGradient id="Gradiente_sem_nome_70" y1="67.62" x2="328.99" y2="67.62" gradientUnits="userSpaceOnUse"><stop offset="0" stop-color="#1b1464"/><stop offset="0.5" stop-color="#2e3192"/><stop offset="1" stop-color="#0071bc"/></linearGradient></defs><title>Ativo 1</title><g id="Camada_2" data-name="Camada 2"><g id="Camada_1-2" data-name="Camada 1"><g class="cls-2"><rect class="cls-3" width="328.99" height="135.24"/></g><path class="cls-4" d="M329.19,120.16l8.51-18.33c7.86,5.07,19.81,8.51,30.61,8.51,11.78,0,16.2-3.11,16.2-8,0-14.4-53.19.33-53.19-34.86,0-16.7,15.06-28.48,40.75-28.48,12.12,0,25.54,2.78,33.89,7.69l-8.51,18.17a50.63,50.63,0,0,0-25.38-6.55c-11.45,0-16.36,3.6-16.36,8.19,0,15,53.19.49,53.19,35.19,0,16.36-15.22,28-41.57,28C352.43,129.66,337.37,125.56,329.19,120.16Z"/><path class="cls-4" d="M512.35,84.32c0,27.66-19.15,45.34-43.87,45.34-11,0-20-3.44-26.52-10.64V160.1H416.43V40.29h24.39V50.43C447.2,42.74,456.69,39,468.48,39,493.2,39,512.35,56.65,512.35,84.32Zm-25.87,0c0-15.23-9.65-24.39-22.42-24.39s-22.42,9.16-22.42,24.39,9.65,24.39,22.42,24.39S486.48,99.54,486.48,84.32Z"/><path class="cls-4" d="M514.63,84.32C514.63,57.8,535.09,39,563.08,39s48.29,18.82,48.29,45.34-20.3,45.34-48.29,45.34S514.63,110.83,514.63,84.32Zm70.88,0c0-15.23-9.66-24.39-22.43-24.39S540.5,69.09,540.5,84.32s9.82,24.39,22.58,24.39S585.51,99.54,585.51,84.32Z"/><path class="cls-4" d="M677,124.09c-5.23,3.77-12.93,5.57-20.78,5.57-20.79,0-32.9-10.64-32.9-31.59V61.89H609.73V42.25h13.59V20.81h25.53V42.25h21.93V61.89H648.85V97.74c0,7.53,4.09,11.62,11,11.62a17.26,17.26,0,0,0,10.31-3.27Z"/></g></g></svg>